<svg xmlns="http://www.w3.org/2000/svg" xmlns:xlink="http://www.w3.org/1999/xlink" width="1000" zoomAndPan="magnify" viewBox="0 0 750 374.999991" height="500" preserveAspectRatio="xMidYMid meet" version="1.0"><defs><g/><clipPath id="0b7dc525d0"><path d="M 269.859375 131 L 312 131 L 312 219 L 269.859375 219 Z M 269.859375 131 " clip-rule="nonzero"/></clipPath><clipPath id="a21d8ad367"><path d="M 342 131 L 423 131 L 423 299.175781 L 342 299.175781 Z M 342 131 " clip-rule="nonzero"/></clipPath><clipPath id="810b274ecf"><path d="M 354 140 L 430 140 L 430 299.175781 L 354 299.175781 Z M 354 140 " clip-rule="nonzero"/></clipPath><clipPath id="4df9f9a5c9"><path d="M 367 152 L 437 152 L 437 299.175781 L 367 299.175781 Z M 367 152 " clip-rule="nonzero"/></clipPath><clipPath id="087a698c21"><path d="M 379 164 L 444 164 L 444 299.175781 L 379 299.175781 Z M 379 164 " clip-rule="nonzero"/></clipPath><clipPath id="438a0287dd"><path d="M 391 176 L 451 176 L 451 299.175781 L 391 299.175781 Z M 391 176 " clip-rule="nonzero"/></clipPath><clipPath id="99e8e4a068"><path d="M 452 186 L 479.859375 186 L 479.859375 200 L 452 200 Z M 452 186 " clip-rule="nonzero"/></clipPath><clipPath id="916c19ba11"><path d="M 449 187 L 479.859375 187 L 479.859375 203 L 449 203 Z M 449 187 " clip-rule="nonzero"/></clipPath><clipPath id="0130fc53ac"><path d="M 446 189 L 479.859375 189 L 479.859375 206 L 446 206 Z M 446 189 " clip-rule="nonzero"/></clipPath><clipPath id="be196f6c92"><path d="M 443 191 L 479.859375 191 L 479.859375 209 L 443 209 Z M 443 191 " clip-rule="nonzero"/></clipPath><clipPath id="2a6d1b5f00"><path d="M 440 193 L 479.859375 193 L 479.859375 212 L 440 212 Z M 440 193 " clip-rule="nonzero"/></clipPath><clipPath id="00a9d5c456"><path d="M 437 195 L 479.859375 195 L 479.859375 215 L 437 215 Z M 437 195 " clip-rule="nonzero"/></clipPath><clipPath id="5895b16c19"><path d="M 436 197 L 479.859375 197 L 479.859375 219 L 436 219 Z M 436 197 " clip-rule="nonzero"/></clipPath><clipPath id="2e7d143918"><path d="M 435 199 L 479.859375 199 L 479.859375 221 L 435 221 Z M 435 199 " clip-rule="nonzero"/></clipPath><clipPath id="9e4a03098e"><path d="M 315 80.175781 L 357 80.175781 L 357 100 L 315 100 Z M 315 80.175781 " clip-rule="nonzero"/></clipPath></defs><g fill="#ff914d" fill-opacity="1"><g transform="translate(115.283512, 273.773193)"><g><path d="M 22.828125 -181.28125 L 148.984375 -181.28125 L 148.984375 -145.953125 L 69.578125 -145.953125 L 69.578125 -112.1875 L 144.25 -112.1875 L 144.25 -76.859375 L 69.578125 -76.859375 L 69.578125 0 L 22.828125 0 Z M 22.828125 -181.28125 "/></g></g></g><g fill="#ff914d" fill-opacity="1"><g transform="translate(285.148371, 273.773193)"><g><path d="M 55.25 -69.578125 L 6.1875 -136 L 52.21875 -136 L 80.015625 -95.6875 L 108.1875 -136 L 154.203125 -136 L 105.15625 -69.8125 L 156.640625 0 L 110.609375 0 L 80.015625 -42.984375 L 49.78125 0 L 3.765625 0 Z M 55.25 -69.578125 "/></g></g></g><g fill="#ff914d" fill-opacity="1"><g transform="translate(445.542571, 273.773193)"><g><path d="M 69.578125 -145.953125 L 69.578125 -35.328125 L 86.328125 -35.328125 C 105.429688 -35.328125 120.019531 -40.0625 130.09375 -49.53125 C 140.175781 -59.007812 145.21875 -72.773438 145.21875 -90.828125 C 145.21875 -108.796875 140.195312 -122.472656 130.15625 -131.859375 C 120.125 -141.253906 105.515625 -145.953125 86.328125 -145.953125 Z M 22.828125 -181.28125 L 72.125 -181.28125 C 99.644531 -181.28125 120.144531 -179.316406 133.625 -175.390625 C 147.101562 -171.460938 158.660156 -164.804688 168.296875 -155.421875 C 176.796875 -147.242188 183.109375 -137.8125 187.234375 -127.125 C 191.359375 -116.4375 193.421875 -104.335938 193.421875 -90.828125 C 193.421875 -77.140625 191.359375 -64.929688 187.234375 -54.203125 C 183.109375 -43.484375 176.796875 -34.035156 168.296875 -25.859375 C 158.578125 -16.472656 146.914062 -9.816406 133.3125 -5.890625 C 119.71875 -1.960938 99.320312 0 72.125 0 L 22.828125 0 Z M 22.828125 -181.28125 "/></g></g></g><g clip-path="url(#0b7dc525d0)"><path fill="#ffffff" d="M 311.097656 131.734375 L 270.492188 218.804688 C 270.21875 217.621094 270.015625 216.4375 269.859375 215.238281 L 306.285156 137.136719 C 307.726562 135.167969 309.335938 133.367188 311.097656 131.734375 Z M 311.097656 131.734375 " fill-opacity="1" fill-rule="nonzero"/></g><path fill="#ffffff" d="M 327.65625 122.792969 L 276.472656 232.542969 L 275.199219 230.34375 L 324.996094 123.566406 C 325.882812 123.269531 326.769531 123.023438 327.65625 122.792969 Z M 327.65625 122.792969 " fill-opacity="1" fill-rule="nonzero"/><path fill="#ffffff" d="M 340.578125 121.6875 L 283.332031 244.417969 L 282.058594 242.21875 L 338.273438 121.6875 Z M 340.578125 121.6875 " fill-opacity="1" fill-rule="nonzero"/><path fill="#ffffff" d="M 352.96875 121.6875 L 290.191406 256.277344 L 288.917969 254.078125 L 350.664062 121.6875 Z M 352.96875 121.6875 " fill-opacity="1" fill-rule="nonzero"/><path fill="#ffffff" d="M 365.359375 121.6875 L 297.046875 268.152344 L 295.773438 265.953125 L 363.054688 121.6875 Z M 365.359375 121.6875 " fill-opacity="1" fill-rule="nonzero"/><path fill="#ffffff" d="M 377.75 121.6875 L 303.90625 280.027344 L 302.632812 277.828125 L 375.445312 121.6875 Z M 377.75 121.6875 " fill-opacity="1" fill-rule="nonzero"/><path fill="#ffffff" d="M 390.140625 121.6875 L 311.769531 289.714844 C 311.214844 289.238281 310.6875 288.734375 310.171875 288.222656 L 387.835938 121.6875 Z M 390.140625 121.6875 " fill-opacity="1" fill-rule="nonzero"/><path fill="#ffffff" d="M 402.261719 122.265625 L 321.300781 295.851562 C 320.671875 295.566406 320.042969 295.257812 319.421875 294.949219 L 400.113281 121.957031 C 400.832031 122.035156 401.550781 122.148438 402.261719 122.265625 Z M 402.261719 122.265625 " fill-opacity="1" fill-rule="nonzero"/><path fill="#ffffff" d="M 412.964844 125.894531 L 332.277344 298.898438 C 331.558594 298.808594 330.835938 298.707031 330.128906 298.578125 L 411.085938 124.992188 C 411.71875 125.277344 412.347656 125.585938 412.964844 125.894531 Z M 412.964844 125.894531 " fill-opacity="1" fill-rule="nonzero"/><g clip-path="url(#a21d8ad367)"><path fill="#ffffff" d="M 422.214844 132.621094 L 344.550781 299.15625 L 342.25 299.15625 L 420.609375 131.128906 C 421.160156 131.605469 421.6875 132.105469 422.214844 132.621094 Z M 422.214844 132.621094 " fill-opacity="1" fill-rule="nonzero"/></g><g clip-path="url(#810b274ecf)"><path fill="#ffffff" d="M 429.757812 143.015625 L 356.929688 299.167969 L 354.640625 299.167969 L 428.484375 140.816406 Z M 429.757812 143.015625 " fill-opacity="1" fill-rule="nonzero"/></g><g clip-path="url(#4df9f9a5c9)"><path fill="#ffffff" d="M 436.613281 154.890625 L 369.320312 299.167969 L 367.03125 299.167969 L 435.339844 152.691406 Z M 436.613281 154.890625 " fill-opacity="1" fill-rule="nonzero"/></g><g clip-path="url(#087a698c21)"><path fill="#ffffff" d="M 443.472656 166.765625 L 381.726562 299.167969 L 379.421875 299.167969 L 442.199219 164.566406 Z M 443.472656 166.765625 " fill-opacity="1" fill-rule="nonzero"/></g><g clip-path="url(#438a0287dd)"><path fill="#ffffff" d="M 450.316406 178.640625 L 394.117188 299.167969 L 391.8125 299.167969 L 449.058594 176.4375 Z M 450.316406 178.640625 " fill-opacity="1" fill-rule="nonzero"/></g><path fill="#ffffff" d="M 457.175781 190.511719 L 407.382812 297.289062 C 406.507812 297.574219 405.617188 297.832031 404.730469 298.050781 L 455.914062 188.300781 Z M 457.175781 190.511719 " fill-opacity="1" fill-rule="nonzero"/><path fill="#ffffff" d="M 462.527344 205.617188 L 426.101562 283.707031 C 424.660156 285.675781 423.054688 287.476562 421.289062 289.109375 L 461.898438 202.039062 C 462.15625 203.222656 462.375 204.421875 462.527344 205.617188 Z M 462.527344 205.617188 " fill-opacity="1" fill-rule="nonzero"/><path fill="#ffffff" d="M 477.339844 195.246094 L 455.582031 185.097656 C 455.875 185.03125 456.171875 184.980469 456.46875 184.941406 L 475.988281 194.039062 C 476.488281 194.398438 476.941406 194.808594 477.339844 195.246094 Z M 477.339844 195.246094 " fill-opacity="1" fill-rule="nonzero"/><g clip-path="url(#99e8e4a068)"><path fill="#ffffff" d="M 479.578125 199.378906 L 452.144531 186.589844 L 452.699219 186.269531 L 479.382812 198.707031 C 479.460938 198.941406 479.527344 199.160156 479.578125 199.378906 Z M 479.578125 199.378906 " fill-opacity="1" fill-rule="nonzero"/></g><g clip-path="url(#916c19ba11)"><path fill="#ffffff" d="M 479.859375 202.605469 L 449.1875 188.3125 L 449.726562 187.992188 L 479.859375 202.027344 Z M 479.859375 202.605469 " fill-opacity="1" fill-rule="nonzero"/></g><g clip-path="url(#0130fc53ac)"><path fill="#ffffff" d="M 479.859375 205.707031 L 446.214844 190.023438 L 446.765625 189.703125 L 479.859375 205.128906 Z M 479.859375 205.707031 " fill-opacity="1" fill-rule="nonzero"/></g><g clip-path="url(#be196f6c92)"><path fill="#ffffff" d="M 479.859375 208.792969 L 443.253906 191.734375 L 443.792969 191.414062 L 479.859375 208.226562 Z M 479.859375 208.792969 " fill-opacity="1" fill-rule="nonzero"/></g><g clip-path="url(#2a6d1b5f00)"><path fill="#ffffff" d="M 479.859375 211.894531 L 440.28125 193.445312 L 440.835938 193.125 L 479.859375 211.316406 Z M 479.859375 211.894531 " fill-opacity="1" fill-rule="nonzero"/></g><g clip-path="url(#00a9d5c456)"><path fill="#ffffff" d="M 479.859375 214.996094 L 437.863281 195.414062 C 437.980469 195.273438 438.105469 195.144531 438.234375 195.015625 L 479.859375 214.417969 Z M 479.859375 214.996094 " fill-opacity="1" fill-rule="nonzero"/></g><g clip-path="url(#5895b16c19)"><path fill="#ffffff" d="M 479.707031 218.019531 L 436.320312 197.792969 C 436.394531 197.640625 436.460938 197.484375 436.550781 197.332031 L 479.78125 217.492188 C 479.769531 217.65625 479.746094 217.839844 479.707031 218.019531 Z M 479.707031 218.019531 " fill-opacity="1" fill-rule="nonzero"/></g><g clip-path="url(#2e7d143918)"><path fill="#ffffff" d="M 478.804688 220.695312 L 435.574219 200.535156 C 435.597656 200.355469 435.625 200.175781 435.648438 199.996094 L 479.035156 220.21875 C 478.960938 220.386719 478.882812 220.539062 478.804688 220.695312 Z M 478.804688 220.695312 " fill-opacity="1" fill-rule="nonzero"/></g><path fill="#ffffff" d="M 477.121094 223.007812 L 435.496094 203.609375 L 435.496094 203.03125 L 477.492188 222.609375 C 477.375 222.738281 477.25 222.882812 477.121094 223.007812 Z M 477.121094 223.007812 " fill-opacity="1" fill-rule="nonzero"/><path fill="#ffffff" d="M 474.519531 224.886719 L 435.496094 206.695312 L 435.496094 206.117188 L 475.074219 224.566406 Z M 474.519531 224.886719 " fill-opacity="1" fill-rule="nonzero"/><path fill="#ffffff" d="M 471.5625 226.597656 L 435.496094 209.796875 L 435.496094 209.21875 L 472.101562 226.289062 Z M 471.5625 226.597656 " fill-opacity="1" fill-rule="nonzero"/><path fill="#ffffff" d="M 468.589844 228.308594 L 435.496094 212.886719 L 435.496094 212.320312 L 469.140625 228 Z M 468.589844 228.308594 " fill-opacity="1" fill-rule="nonzero"/><path fill="#ffffff" d="M 465.617188 230.035156 L 435.496094 215.984375 L 435.496094 215.40625 L 466.167969 229.710938 Z M 465.617188 230.035156 " fill-opacity="1" fill-rule="nonzero"/><path fill="#ffffff" d="M 462.65625 231.746094 L 435.972656 219.304688 C 435.894531 219.085938 435.828125 218.867188 435.777344 218.636719 L 463.210938 231.421875 Z M 462.65625 231.746094 " fill-opacity="1" fill-rule="nonzero"/><path fill="#ffffff" d="M 458.875 233.070312 L 439.355469 223.972656 C 438.867188 223.613281 438.417969 223.214844 438.003906 222.765625 L 459.761719 232.914062 C 459.480469 232.980469 459.183594 233.042969 458.875 233.070312 Z M 458.875 233.070312 " fill-opacity="1" fill-rule="nonzero"/><g clip-path="url(#9e4a03098e)"><path fill="#ffffff" d="M 356.839844 99.753906 L 315.511719 80.480469 C 316.078125 80.351562 316.644531 80.25 317.210938 80.183594 L 354.28125 97.476562 C 355.207031 98.15625 356.066406 98.914062 356.839844 99.753906 Z M 356.839844 99.753906 " fill-opacity="1" fill-rule="nonzero"/></g><path fill="#ffffff" d="M 361.085938 107.613281 L 308.988281 83.324219 L 310.03125 82.71875 L 360.726562 106.351562 C 360.855469 106.777344 360.984375 107.1875 361.085938 107.613281 Z M 361.085938 107.613281 " fill-opacity="1" fill-rule="nonzero"/><path fill="#ffffff" d="M 361.613281 113.75 L 303.351562 86.578125 L 304.394531 85.972656 L 361.613281 112.65625 Z M 361.613281 113.75 " fill-opacity="1" fill-rule="nonzero"/><path fill="#ffffff" d="M 361.613281 119.628906 L 297.71875 89.832031 L 298.757812 89.230469 L 361.613281 118.535156 Z M 361.613281 119.628906 " fill-opacity="1" fill-rule="nonzero"/><path fill="#ffffff" d="M 361.613281 125.507812 L 292.082031 93.089844 L 293.125 92.484375 L 361.613281 124.414062 Z M 361.613281 125.507812 " fill-opacity="1" fill-rule="nonzero"/><path fill="#ffffff" d="M 361.613281 131.386719 L 286.445312 96.34375 L 287.488281 95.738281 L 361.613281 130.292969 Z M 361.613281 131.386719 " fill-opacity="1" fill-rule="nonzero"/><path fill="#ffffff" d="M 361.613281 137.265625 L 281.839844 100.074219 C 282.070312 99.816406 282.300781 99.558594 282.546875 99.316406 L 361.613281 136.171875 Z M 361.613281 137.265625 " fill-opacity="1" fill-rule="nonzero"/><path fill="#ffffff" d="M 361.332031 143.015625 L 278.929688 104.601562 C 279.074219 104.304688 279.214844 104.011719 279.355469 103.714844 L 361.484375 142 C 361.445312 142.335938 361.394531 142.683594 361.332031 143.015625 Z M 361.332031 143.015625 " fill-opacity="1" fill-rule="nonzero"/><path fill="#ffffff" d="M 359.621094 148.097656 L 277.492188 109.800781 C 277.527344 109.453125 277.582031 109.117188 277.644531 108.785156 L 360.042969 147.210938 C 359.902344 147.507812 359.761719 147.800781 359.621094 148.097656 Z M 359.621094 148.097656 " fill-opacity="1" fill-rule="nonzero"/><path fill="#ffffff" d="M 356.414062 152.484375 L 277.363281 115.628906 L 277.363281 114.535156 L 357.136719 151.726562 C 356.90625 151.984375 356.660156 152.242188 356.414062 152.484375 Z M 356.414062 152.484375 " fill-opacity="1" fill-rule="nonzero"/><path fill="#ffffff" d="M 351.488281 156.074219 L 277.363281 121.507812 L 277.363281 120.414062 L 352.53125 155.46875 Z M 351.488281 156.074219 " fill-opacity="1" fill-rule="nonzero"/><path fill="#ffffff" d="M 345.851562 159.316406 L 277.363281 127.386719 L 277.363281 126.292969 L 346.894531 158.722656 Z M 345.851562 159.316406 " fill-opacity="1" fill-rule="nonzero"/><path fill="#ffffff" d="M 340.214844 162.570312 L 277.363281 133.265625 L 277.363281 132.183594 L 341.257812 161.964844 Z M 340.214844 162.570312 " fill-opacity="1" fill-rule="nonzero"/><path fill="#ffffff" d="M 334.582031 165.824219 L 277.363281 139.15625 L 277.363281 138.0625 L 335.621094 165.222656 Z M 334.582031 165.824219 " fill-opacity="1" fill-rule="nonzero"/><path fill="#ffffff" d="M 328.945312 169.082031 L 278.25 145.449219 C 278.109375 145.035156 277.992188 144.613281 277.890625 144.1875 L 329.988281 168.476562 Z M 328.945312 169.082031 " fill-opacity="1" fill-rule="nonzero"/><path fill="#ffffff" d="M 321.765625 171.613281 L 284.695312 154.335938 C 283.757812 153.65625 282.90625 152.882812 282.136719 152.046875 L 323.464844 171.320312 C 322.898438 171.449219 322.34375 171.550781 321.765625 171.613281 Z M 321.765625 171.613281 " fill-opacity="1" fill-rule="nonzero"/></svg>